<?xml version="1.0" encoding="utf-8"?>
<svg viewBox="133.984 159.528 39.096 60.762" xmlns="http://www.w3.org/2000/svg">
  <path d="M 142.884 180.028 L 157.934 180.028 L 157.984 182.828 L 142.584 182.828 Z M 149.684 161.428 L 150.484 162.928 L 140.584 191.778 Q 140.584 192.028 141.234 192.253 Q 141.884 192.478 142.859 192.578 Q 143.834 192.678 144.784 192.678 L 145.534 192.678 L 145.534 195.028 L 133.984 195.028 L 133.984 192.678 L 134.234 192.678 Q 135.634 192.678 136.434 192.303 Q 137.234 191.928 137.734 190.528 L 148.434 159.528 L 153.534 159.528 L 164.634 191.278 Q 164.984 192.228 165.809 192.453 Q 166.634 192.678 167.884 192.678 L 168.134 192.678 L 168.134 195.028 L 155.134 195.028 L 155.134 192.678 L 155.984 192.678 Q 156.934 192.678 157.934 192.628 Q 158.934 192.578 159.609 192.453 Q 160.284 192.328 160.284 192.178 Z" style="fill: rgb(255, 255, 255);"/>
  <path d="M 162.46 220.29 C 158.895 220.29 155.921 219.509 153.537 217.946 C 151.152 216.384 149.362 214.243 148.166 211.525 C 146.969 208.807 146.371 205.723 146.371 202.272 L 146.371 201.759 C 146.371 198.277 146.997 195.18 148.251 192.47 C 149.504 189.76 151.303 187.624 153.647 186.061 C 155.99 184.499 158.789 183.717 162.045 183.717 C 164.339 183.717 166.439 184.076 168.344 184.792 C 170.248 185.508 171.826 186.42 173.08 187.526 L 173.08 195.192 L 169.247 195.192 L 168.734 189.577 C 168.213 189.17 167.615 188.828 166.94 188.551 C 166.264 188.275 165.516 188.063 164.694 187.917 C 163.872 187.771 162.981 187.697 162.021 187.697 C 159.693 187.697 157.723 188.295 156.112 189.491 C 154.5 190.688 153.28 192.336 152.45 194.435 C 151.62 196.535 151.205 198.961 151.205 201.711 L 151.205 202.272 C 151.205 205.251 151.648 207.794 152.536 209.902 C 153.422 212.01 154.716 213.617 156.418 214.723 C 158.118 215.83 160.189 216.383 162.631 216.383 C 163.77 216.383 164.885 216.245 165.976 215.968 C 167.066 215.692 167.969 215.334 168.686 214.894 L 169.223 209.938 L 172.982 209.938 L 172.982 217.653 C 171.648 218.483 170.053 219.13 168.197 219.594 C 166.341 220.058 164.429 220.29 162.46 220.29 Z" style="fill: rgb(255, 255, 255); stroke: rgb(255, 255, 255);"/>
</svg>